# xmcd
#
# Track frame offsets: 
#        150
#        13472
#        30156
#        43130
#        55718
#        67844
#        87199
#        105618
#        125406
#        142438
#        164048
#        181373
#        200636
#        217920
#        233986
#
# Disc length: 3408 seconds
#
# Revision: 2
# Processed by: cddbd v1.5.2PL0 Copyright (c) Steve Scherf et al.
# Submitted via: ExactAudioCopy v0.99pb5
#
DISCID=d90d4e0f
DTITLE=Ben L'Oncle Soul - Ben L'Oncle Soul
DYEAR=2010
DGENRE=Soul
TTITLE0=Seven Nation Army
TTITLE1=Soulman
TTITLE2=Little Sister
TTITLE3=Otherside
TTITLE4=Crazy
TTITLE5=Barbie Girl
TTITLE6=Elle Me Dit
TTITLE7=I Don't Wanna Waste
TTITLE8=Come Home
TTITLE9=L'Ombre D'Un Homme
TTITLE10=Ain't Off To The Back
TTITLE11=Lise
TTITLE12=Mon Amour
TTITLE13=Lose It
TTITLE14=Back For You
EXTD=
EXTT0=
EXTT1=
EXTT2=
EXTT3=
EXTT4=
EXTT5=
EXTT6=
EXTT7=
EXTT8=
EXTT9=
EXTT10=
EXTT11=
EXTT12=
EXTT13=
EXTT14=
PLAYORDER=
